<svg version="1" xmlns="http://www.w3.org/2000/svg" width="682.667" height="682.667" viewBox="0 0 512.000000 512.000000"><path d="M233.2 1.1c-13.2 1.2-26.6 3.6-41.8 7.4-17.5 4.5-29.8 9.1-47.9 18-27.8 13.7-45.2 26.2-68 49-23 22.9-35.2 39.9-49 68-15.6 31.6-23.1 60-25.7 96.3-1.9 26.6.6 52.6 7.7 80.8 4.5 17.5 9.1 29.8 18 47.9 13.8 28.1 26 45.1 49 68 22.9 23 39.9 35.2 68 49 18.1 8.9 30.4 13.5 47.9 18 28.2 7.1 54.2 9.6 80.8 7.7 35.7-2.5 64-10 95.3-25.1 27.4-13.2 46.1-26.6 69-49.6 23-22.9 35.2-39.9 49-68 15.6-31.6 23.1-60 25.7-96.2 1.9-26.7-.6-52.7-7.7-80.9-4.5-17.5-9.1-29.8-18-47.9-13.8-28.1-26-45.1-49-68-22.8-22.8-40.2-35.3-68-49-18.1-8.9-30.4-13.5-47.9-18-29.8-7.6-58.3-10-87.4-7.4zM128.1 160.9c9.9 1.7 14 3.1 17.7 6.5 3.2 3 3.6 3.9 4 9.5l.5 6.3-5.3 4.9c-4.2 3.9-5.6 6.1-7.1 11.1-2.2 7.1-2.8 21.3-1 24.7 2.7 4.9 8.3 1.7 18.4-10.7C163.7 203 168 196.1 168 193c0-1.5-.9-4.7-2-7.1-2.6-5.8-2.5-10.8.3-14.9 5.2-7.8 13.8-10.1 40.4-10.7 30-.8 42.8 1.6 47.3 8.9 3.8 6.2 1.7 15.7-4.2 18.9-1.3.7-6.8 1.6-12.3 1.9-6.2.4-11.4 1.3-13.7 2.4-1.9.9-9.7 7.7-17.1 14.9-14.4 14.1-16.5 17.5-15.3 24.2.9 4.6 2.4 6.5 38 47.8 30.5 35.4 30.6 35.5 38.1 39.2 11.8 5.9 16 12.4 13.5 21.3-1.2 4.6-3.5 6.9-8.7 8.8-5.2 1.8-66.6 2-70.2.1-1.4-.6-4.3-3.5-6.5-6.3-2.3-2.8-8-10-12.7-16-10.3-12.9-26.6-31-30.6-34-4.8-3.5-6.8-3.7-10-1-2.6 2.3-2.8 3-3.2 11.1-.4 11.5 1.2 15.8 7.9 20.8 6.3 4.7 8.1 7.5 8.2 12.7.1 5.3-2.4 8.7-8.3 11.6-6.9 3.5-14.7 4.6-38.1 5.1-41.5 1-53.8-2.7-53.8-16.3 0-4.7.2-5.1 6.6-11 7.4-6.9 8.6-9.7 10.3-24 2.6-23 2.1-77.5-1-93.9-1.5-8.3-3-10.7-9.6-15.7-6.8-5.2-8.9-9.7-7.3-15.7 1.4-5.3 3.4-7.6 8.5-10 8.8-4.1 20.9-5.8 43.5-6 9.1 0 19 .3 22.1.8zM424 165c22.1 6.4 37.8 20.4 43.6 38.9 2.4 7.5 2.8 21.5 1 30.1-5 23.6-24.3 41-51.7 46.6-6.9 1.4-11.5 1.6-26 1.1-14.2-.6-17.9-.4-18.8.7-.8.9-.9 5.7-.3 16.9 1 18.3 1.3 18.8 11.2 25.2 7.5 4.8 9 6.7 9 11.6 0 2.4-.9 4.1-4 7-7.1 6.8-21.8 9.9-47 9.9-33.4 0-50-5.8-50-17.4 0-4.8 1.5-6.7 9.4-11.3 2.7-1.5 5.8-4.1 7-5.6 2.1-2.8 2.1-3.5 2.1-61.7 0-68.5 1-62.6-11.4-67.1-8.4-3.2-9.9-4.3-11.8-8.7-2.5-5.9 1.4-13 8.5-15.3 2.2-.7 16-1.3 38.6-1.5 19.3-.2 38.7-.8 43.1-1.3 4.4-.5 15.2-.8 24-.6 12.8.2 17.5.7 23.5 2.5z"/><path d="M376 193.1c-1.3.5-2.8 1.5-3.2 2.2-.4.7-.8 12.6-.8 26.4 0 28.9-.1 28.6 8.4 29.8 10.3 1.6 19.8-3.2 24.3-12.2 2.5-5.3 2.8-6.8 2.8-16.3 0-6.3-.5-12-1.4-14.4-1.7-4.9-7.3-11.2-12.3-13.7-4.5-2.3-14.3-3.3-17.8-1.8z"/></svg>